<mxfile host="app.diagrams.net" modified="2023-08-28T14:14:17.872Z" agent="Mozilla/5.0 (Macintosh; Intel Mac OS X 10_15_7) AppleWebKit/537.36 (KHTML, like Gecko) Chrome/116.0.0.0 Safari/537.36" version="21.6.8" etag="FbvzrRkGQ-4nGvj7JINk" type="github">
  <diagram name="第 1 页" id="qNgQTngdt_0OAFXDqKHa">
    <mxGraphModel>
      <root>
        <mxCell id="0" />
        <mxCell id="1" parent="0" />
      </root>
    </mxGraphModel>
  </diagram>
</mxfile>
